<svg width="208" height="30" viewBox="0 0 148 30" fill="none" xmlns="http://www.w3.org/2000/svg">

  <!-- Car Icon (Flipped Horizontally) -->
  <g transform="translate(35,3) scale(-1,1.05)">
    <svg width="42" height="40" viewBox="0 -0.5 17 17" xmlns="http://www.w3.org/2000/svg">
      <g fill="#2563EB">
        <circle cx="12.49" cy="6.49" r="1.49"/>
        <circle cx="3.49" cy="6.49" r="1.49"/>
        <path d="M16,4.836 C16,4.239 15.922,3.699 15.247,3.312 L14.662,1.338 C14.662,0.947 13.747,0 12.618,0 L7.339,0 C6.21,0 5.296,1.088 5.296,1.338 L4.432,3 L3.651,3.107 C1.633,3.107 0.583,4.334 0.583,5.515 L0.024,6.984 L1.031,6.984 C0.995,6.817 0.975,6.644 0.975,6.466 C0.975,5.086 2.102,3.968 3.494,3.968 C4.885,3.968 6.012,5.086 6.012,6.466 C6.012,6.644 5.992,6.817 5.956,6.984 L10.03,6.984 C9.994,6.817 9.974,6.644 9.974,6.466 C9.974,5.086 11.101,3.968 12.493,3.968 C13.884,3.968 15.012,5.086 15.012,6.466 C15.012,6.644 14.992,6.817 14.956,6.984 L16,6.984 Z"/>
      </g>
    </svg>
  </g>

  <!-- Text -->
  <text
    x="40"
    y="23"
    fill="#414141"
    font-size="28"
    font-weight="600"
    font-family= "Outfit, sans-serif"
  >
    SwiftDrive
  </text>

</svg>