<svg
  width="320"
  height="38"
  viewBox="0 0 320 38"
  xmlns="http://www.w3.org/2000/svg"
  fill="none"
>

  <!-- Car Icon (unchanged) -->
  <g
    transform="translate(50,10) scale(-2.5,2.75)"
    fill="#2563EB"
  >
    <circle cx="12.49" cy="6.49" r="1.49" />
    <circle cx="3.49" cy="6.49" r="1.49" />

    <path d="M6.514,1.607 C6.319,2.141 5.934,3 5.934,3 L9.026,3 L9.026,0.957
      L7.544,0.957 C7.264,0.957 6.701,1.088 6.514,1.607 Z" />

    <path d="M12.446,0.967 L9.968,0.967 L9.968,3 L14.054,3
      L13.57,1.553 C13.57,1.553 13.16,0.967 12.446,0.967 Z" />

    <path d="M16,4.836 C16,4.239 15.922,3.699 15.247,3.312
      L14.662,1.338 C14.662,0.947 13.747,0 12.618,0
      L7.339,0 C6.21,0 5.296,1.088 5.296,1.338
      L4.432,3 L3.651,3.107 C1.633,3.107 0.583,4.334 0.583,5.515
      L0.024,6.984 L1.031,6.984
      C0.995,6.817 0.975,6.644 0.975,6.466
      C0.975,5.086 2.102,3.968 3.494,3.968
      C4.885,3.968 6.012,5.086 6.012,6.466
      C6.012,6.644 5.992,6.817 5.956,6.984
      L10.03,6.984
      C9.994,6.817 9.974,6.644 9.974,6.466
      C9.974,5.086 11.101,3.968 12.493,3.968
      C13.884,3.968 15.012,5.086 15.012,6.466
      C15.012,6.644 14.992,6.817 14.956,6.984
      L16,6.984 Z" />
  </g>

  <!-- Text SVG (unchanged, shifted right) -->
  <g transform="translate(50,5)">
    <svg
      xmlns="http://www.w3.org/2000/svg"
      viewBox="0 9.050000190734863 135.35000610351562 38"
      width="135.35000610351562"
      height="28"
      data-asc="0.934"
    >
      <g fill="#414141">
        <g transform="translate(-10, 0)">
          <path d="M2.30 46.80Q1.10 46.80 0.55 46.48Q0 46.15 0 45.55L0 13.35Q0 11.70 1.65 11.70L17.20 11.70Q18.25 11.70 18.25 13.50L18.25 14.50Q18.25 16.30 17.20 16.30L5.45 16.30L5.45 27.80L16.50 27.80Q17.60 27.80 17.60 29.60L17.60 30.60Q17.60 32.40 16.50 32.40L5.45 32.40L5.45 45.55Q5.45 46.15 4.93 46.48Q4.40 46.80 3.10 46.80L2.30 46.80ZM30.95 47.05Q28.80 47.05 27.40 46.25Q26 45.45 25.30 43.93Q24.60 42.40 24.60 40.15L24.60 10.35Q24.60 9.70 25.10 9.38Q25.60 9.05 26.85 9.05L27.55 9.05Q28.80 9.05 29.30 9.38Q29.80 9.70 29.80 10.35L29.80 40.05Q29.80 41.55 30.27 42.13Q30.75 42.70 31.95 42.70Q33 42.70 33.50 42.45Q34 42.20 34.35 42.20Q34.60 42.20 34.80 42.58Q35 42.95 35.13 43.48Q35.25 44 35.27 44.48Q35.30 44.95 35.30 45.15Q35.30 45.70 34.58 46.13Q33.85 46.55 32.85 46.80Q31.85 47.05 30.95 47.05ZM49.90 47.05Q43.85 47.05 40.75 43.85Q37.65 40.65 37.65 33.75Q37.65 29.25 39.08 26.25Q40.50 23.25 43.15 21.73Q45.80 20.20 49.50 20.20Q53.05 20.20 55.35 21.78Q57.65 23.35 58.75 26.25Q59.85 29.15 59.85 33.10Q59.85 33.60 59.55 34.18Q59.25 34.75 58.78 35.15Q58.30 35.55 57.80 35.55L43 35.55Q43.10 39.35 44.88 41.08Q46.65 42.80 50.05 42.80Q52.25 42.80 53.83 42.25Q55.40 41.70 56.38 41.20Q57.35 40.70 57.65 40.70Q58.05 40.70 58.40 41.20Q58.75 41.70 58.98 42.38Q59.20 43.05 59.20 43.45Q59.20 44 58.40 44.60Q57.60 45.20 56.28 45.78Q54.95 46.35 53.30 46.70Q51.65 47.05 49.90 47.05M42.95 31.55L54.75 31.55Q54.75 28.00 53.30 26.23Q51.85 24.45 49.10 24.45Q47.25 24.45 45.90 25.25Q44.55 26.05 43.78 27.60Q43 29.15 42.95 31.55ZM76.35 47.05Q70.30 47.05 67.20 43.85Q64.10 40.65 64.10 33.75Q64.10 29.25 65.53 26.25Q66.95 23.25 69.60 21.73Q72.25 20.20 75.95 20.20Q79.50 20.20 81.80 21.78Q84.10 23.35 85.20 26.25Q86.30 29.15 86.30 33.10Q86.30 33.60 86 34.18Q85.70 34.75 85.23 35.15Q84.75 35.55 84.25 35.55L69.45 35.55Q69.55 39.35 71.33 41.08Q73.10 42.80 76.50 42.80Q78.70 42.80 80.28 42.25Q81.85 41.70 82.83 41.20Q83.80 40.70 84.10 40.70Q84.50 40.70 84.85 41.20Q85.20 41.70 85.43 42.38Q85.65 43.05 85.65 43.45Q85.65 44 84.85 44.60Q84.05 45.20 82.73 45.78Q81.40 46.35 79.75 46.70Q78.10 47.05 76.35 47.05M69.40 31.55L81.20 31.55Q81.20 28.00 79.75 26.23Q78.30 24.45 75.55 24.45Q73.70 24.45 72.35 25.25Q71 26.05 70.23 27.60Q69.45 29.15 69.40 31.55ZM99.85 47.05Q97.75 47.05 96.33 46.25Q94.90 45.45 94.20 43.93Q93.50 42.40 93.50 40.15L93.50 24.80L91.25 24.80Q90.10 24.80 90.10 23L90.10 22.35Q90.10 20.55 91.25 20.55L93.50 20.55L94.15 15.45Q94.25 14.80 94.70 14.50Q95.15 14.20 96 14.20L96.75 14.20Q97.80 14.20 98.25 14.50Q98.70 14.80 98.70 15.45L98.70 20.55L102.60 20.55Q103.75 20.55 103.75 22.35L103.75 23Q103.75 24.80 102.60 24.80L98.70 24.80L98.70 40.05Q98.70 41.50 99.17 42.10Q99.65 42.70 100.85 42.70Q101.95 42.70 102.42 42.45Q102.90 42.20 103.25 42.20Q103.55 42.20 103.72 42.58Q103.90 42.95 104.03 43.48Q104.15 44 104.17 44.48Q104.20 44.95 104.20 45.15Q104.20 45.70 103.47 46.13Q102.75 46.55 101.75 46.80Q100.75 47.05 99.85 47.05ZM108.95 46.80Q107.60 46.80 107.02 46.58Q106.45 46.35 106.45 45.90Q106.45 45.70 106.55 45.45Q106.65 45.20 106.85 44.90L117.80 28.40L108.05 13.50Q107.85 13.20 107.72 12.95Q107.60 12.70 107.60 12.50Q107.60 12.10 108.20 11.85Q108.80 11.60 110.15 11.60L111.25 11.60Q112.15 11.60 112.75 11.77Q113.35 11.95 113.75 12.50L121.05 23.75L128.50 12.45Q128.85 11.95 129.53 11.77Q130.20 11.60 131 11.60L131.80 11.60Q133.15 11.60 133.72 11.83Q134.30 12.05 134.30 12.50Q134.30 12.70 134.20 12.95Q134.10 13.20 133.90 13.50L124.10 28.35L134.95 44.90Q135.15 45.20 135.25 45.45Q135.35 45.70 135.35 45.90Q135.35 46.35 134.78 46.58Q134.20 46.80 132.80 46.80L131.70 46.80Q130.80 46.80 130.20 46.63Q129.60 46.45 129.20 45.90L120.80 32.95L112.25 45.95Q111.90 46.50 111.25 46.65Q110.60 46.80 109.80 46.80L108.95 46.80Z"/>
        </g>
      </g>
    </svg>
  </g>

</svg>